<?xml version="1.0" standalone="no"?>
<!DOCTYPE svg PUBLIC "-//W3C//DTD SVG 20010904//EN"
 "http://www.w3.org/TR/2001/REC-SVG-20010904/DTD/svg10.dtd">
<svg version="1.0" xmlns="http://www.w3.org/2000/svg"
 width="1024.000000pt" height="1024.000000pt" viewBox="0 0 1024.000000 1024.000000"
 preserveAspectRatio="xMidYMid meet">
<metadata>
Created by potrace 1.14, written by Peter Selinger 2001-2017
</metadata>
<g transform="translate(0.000000,1024.000000) scale(0.100000,-0.100000)"
fill="#000000" stroke="none">
<path d="M4829 10236 c-2 -2 -50 -7 -105 -10 -56 -4 -112 -9 -125 -11 -13 -2
-53 -6 -88 -9 -35 -4 -66 -8 -70 -10 -3 -2 -34 -7 -68 -10 -34 -3 -122 -18
-195 -32 -73 -15 -146 -28 -161 -30 -16 -2 -33 -6 -38 -10 -5 -3 -22 -8 -37
-10 -15 -3 -54 -12 -87 -21 -33 -8 -64 -16 -70 -17 -19 -5 -100 -27 -130 -37
-271 -86 -460 -157 -660 -248 -132 -60 -390 -194 -445 -232 -8 -5 -27 -15 -42
-22 -16 -6 -28 -15 -28 -19 0 -4 -5 -8 -11 -8 -14 0 -280 -175 -371 -244 -36
-28 -79 -60 -94 -71 -15 -11 -32 -24 -38 -30 -6 -5 -45 -37 -86 -70 -73 -58
-96 -77 -210 -180 -83 -74 -307 -301 -375 -380 -33 -37 -65 -73 -71 -79 -23
-24 -214 -267 -244 -312 -19 -27 -37 -51 -40 -54 -10 -8 -171 -256 -227 -350
-262 -438 -478 -978 -588 -1470 -10 -45 -35 -170 -40 -200 -10 -59 -17 -104
-22 -125 -2 -11 -6 -38 -9 -60 -5 -45 -9 -71 -18 -135 -22 -154 -31 -326 -31
-625 1 -309 8 -452 31 -600 2 -16 7 -52 9 -80 3 -27 7 -60 9 -72 3 -11 8 -43
12 -70 6 -42 68 -348 80 -396 2 -9 6 -25 8 -35 34 -132 111 -388 126 -414 6
-10 10 -25 10 -33 0 -8 4 -23 9 -33 5 -9 35 -82 66 -162 76 -192 318 -685 355
-720 3 -3 29 -45 59 -95 30 -49 58 -94 63 -100 5 -5 19 -26 31 -45 62 -93 247
-344 294 -395 10 -12 43 -50 73 -85 134 -159 447 -470 555 -553 5 -4 26 -21
45 -38 117 -104 477 -363 590 -425 19 -10 37 -22 40 -25 26 -30 528 -286 675
-344 39 -15 79 -31 90 -36 54 -23 141 -55 245 -89 184 -61 238 -77 365 -109
124 -31 135 -34 220 -51 118 -25 249 -47 345 -60 41 -5 93 -12 115 -15 141
-19 305 -28 575 -29 234 -1 396 5 510 19 19 2 60 6 90 10 62 6 109 12 160 20
19 3 53 8 75 11 62 9 333 63 400 81 33 8 67 17 75 18 64 15 218 61 334 100
170 57 606 234 626 255 3 3 30 17 60 32 30 14 104 54 164 87 60 34 113 61 118
61 4 0 8 5 8 10 0 6 4 10 10 10 9 0 50 25 180 109 72 46 254 173 260 181 3 4
12 11 21 16 9 5 33 23 54 39 88 70 170 138 175 144 3 4 15 14 28 23 52 35 270
244 407 389 484 514 872 1155 1102 1824 66 191 141 453 156 545 2 14 6 32 10
40 3 8 8 31 11 50 3 19 7 46 10 60 12 57 16 77 22 114 3 21 8 48 10 60 2 11 7
44 10 71 3 28 7 56 10 63 2 8 6 44 10 80 3 37 7 77 9 89 30 183 24 846 -10
1098 -2 17 -7 53 -10 80 -3 28 -11 75 -16 105 -6 30 -12 69 -14 85 -13 111
-97 467 -150 635 -14 47 -28 90 -29 95 -2 6 -6 17 -9 25 -3 8 -14 42 -25 75
-24 71 -86 233 -112 290 -10 22 -32 74 -50 115 -42 97 -214 434 -230 450 -3 3
-16 25 -29 50 -14 25 -32 56 -41 70 -10 14 -52 79 -95 145 -43 66 -117 171
-164 234 -47 63 -90 121 -96 129 -5 8 -17 23 -25 32 -8 9 -31 36 -50 60 -19
24 -44 53 -55 65 -11 11 -47 52 -80 90 -278 322 -761 723 -1143 950 -389 231
-730 386 -1127 512 -183 57 -535 143 -654 158 -20 3 -47 7 -61 10 -24 5 -90
15 -140 20 -14 2 -25 4 -25 5 0 2 -24 5 -140 15 -49 4 -101 9 -115 12 -31 5
-686 13 -691 9z"/>
</g>
</svg>
